<?xml version="1.0" encoding="UTF-8"?>
<svg viewBox="0 0 1080 1080" version="1.1" xmlns="http://www.w3.org/2000/svg" xmlns:xlink="http://www.w3.org/1999/xlink">
    <title>Endgame</title>
    <defs>
        <linearGradient x1="50%" y1="-2.48949813e-15%" x2="50%" y2="100%" id="linearGradient-1">
            <stop stop-color="#0091FF" offset="0%"></stop>
            <stop stop-color="#004880" offset="100%"></stop>
        </linearGradient>
        <linearGradient x1="50%" y1="100%" x2="50%" y2="-2.48949813e-15%" id="linearGradient-2">
            <stop stop-color="#0091FF" offset="0%"></stop>
            <stop stop-color="#004880" offset="100%"></stop>
        </linearGradient>
    </defs>
    <g id="token" stroke="none" stroke-width="1" fill="none" fill-rule="evenodd">
        <circle id="path" fill="url(#linearGradient-1)" cx="540" cy="540" r="468"></circle>
        <path d="M540,150 C755.391052,150 930,324.608948 930,540 C930,755.391052 755.391052,930 540,930 C324.608948,930 150,755.391052 150,540 C150,324.608948 324.608948,150 540,150 Z M540,189 C346.148053,189 189,346.148053 189,540 C189,733.851947 346.148053,891 540,891 C733.851947,891 891,733.851947 891,540 C891,346.148053 733.851947,189 540,189 Z" id="path" fill="url(#linearGradient-2)"></path>
        <g id="sword" transform="translate(300, 300)" fill-rule="nonzero">
            <rect id="base" x="0" y="0" width="480" height="480"></rect>
            <path d="M290.486,60 C277.36,60 265.07,66.4396 257.598,77.2316 L164.0624,212.34 L267.668,315.944 L402.776,222.408 C413.568,214.938 420.008,202.646 420.008,189.521 L420.008,80 C420.008,68.9544 411.054,60 400.008,60 L290.486,60 Z" id="Path" fill="#FFFFFF"></path>
            <path d="M114.1392,205.858 C109.9022,201.622 103.989,199.507 98.0262,200.098 C92.0636,200.688 86.6796,203.92 83.356,208.906 L71.0132,227.42 C61.7948,241.248 62.0866,259.334 71.7458,272.858 L103.8746,317.838 L59.997,361.716 C44.376,377.336 44.376,402.664 59.997,418.284 L61.7128,420 C77.3336,435.622 102.6602,435.622 118.2812,420 L162.159,376.122 L207.14,408.252 C220.662,417.91 238.75,418.202 252.576,408.984 L271.09,396.642 C276.076,393.318 279.31,387.934 279.9,381.97 C280.49,376.008 278.376,370.094 274.14,365.858 L114.1392,205.858 Z" id="Path" fill="#FFFFFF"></path>
        </g>
    </g>
</svg>
